<svg xmlns="http://www.w3.org/2000/svg" xmlns:xlink="http://www.w3.org/1999/xlink" width="446.666" height="446.666" viewBox="0 0 446.666 446.666">
  <defs>
    <clipPath id="clip-path">
      <rect id="Rectangle_24" data-name="Rectangle 24" width="446.666" height="446.666" rx="223" fill="none"/>
    </clipPath>
  </defs>
  <g id="Group_12" data-name="Group 12" clip-path="url(#clip-path)">
    <path id="Path_15" data-name="Path 15" d="M361,446.666H85.664A85.664,85.664,0,0,1,0,361V85.664A85.664,85.664,0,0,1,85.664,0H361a85.664,85.664,0,0,1,85.664,85.664V361A85.664,85.664,0,0,1,361,446.666" fill="#6100b4"/>
    <path id="Path_16" data-name="Path 16" d="M224.368,26.333c-2.53,1.9,118.709,3.4,118.485,4.659,41.721,1.875,77.506,37.3,79.616,80.642,1.737,1.063,3.755,124.474,5.158,125.77,2.687.947,4.467,124.91,5.647,126.581,2.2,45.173-31.781,82.661-73.835,82.661,0,0-124.749-.074-132.355.02H94.853c-13.491,0-29.292-3.509-40.282-9.664C31.305,423.972,9.06,399.083,9.06,370.52c-.741-1.794,4.113-120.982,5.485-121.242.143-.027.281-6.184.413-6.214,4.073-.91,3.04-86.031,4.373-86.314.4-.976.637-41.063.685-41.824C22.478,76.2,44.525,44.237,79.584,33.857a81.689,81.689,0,0,1,17.631-2.988c1.87-2.974,129.663-6.421,127.153-4.536" fill="#7104ad"/>
    <path id="Path_17" data-name="Path 17" d="M225.4,52.666c-5.06,3.8,99.748,6.8,99.3,9.317,36.131,3.75,69.349,36.239,73.569,75.621,3.472,2.126,7.509,111.279,10.315,113.871,5.373,1.894,8.935,112.152,11.294,115.493,4.4,43.035-25.21,79.658-62.007,79.658,0,0-111.828-.148-127.04.04H104.042c-11.805,0-29.151-3.07-38.767-8.456-20.358-11.4-47.156-33.179-47.156-58.172-1.481-3.587,8.227-111.189,10.971-111.71.286-.054.561-5.473.826-5.532,8.146-1.822,6.079-78.549,8.747-79.116.789-1.951,1.266-37.971,1.37-39.492,2.507-36.847,20.653-66.632,52.74-78.651a77.506,77.506,0,0,1,15.994-3.8C112.5,55.79,230.423,48.9,225.4,52.666" fill="#8108a6"/>
    <path id="Path_18" data-name="Path 18" d="M226.438,79c-7.589,5.7,80.788,10.206,80.118,13.976,30.54,5.625,61.19,35.182,67.52,70.6,5.209,3.19,11.264,98.083,15.473,101.971,8.06,2.842,13.4,99.394,16.941,104.406,6.608,40.9-18.638,76.655-50.178,76.655,0,0-98.907-.221-121.726.06H113.231c-10.118,0-29.01-2.632-37.252-7.248-17.45-9.772-48.8-28.439-48.8-49.861-2.222-5.381,12.34-101.4,16.456-102.178.429-.082.842-4.763,1.239-4.852,12.22-2.732,9.119-71.066,13.12-71.917,1.184-2.925,1.889-34.879,2.055-37.16,2.554-34.968,16.8-62.575,45.912-76.232a73.3,73.3,0,0,1,14.357-4.61C125.926,83.685,233.967,73.344,226.438,79" fill="#900b9f"/>
    <path id="Path_19" data-name="Path 19" d="M227.473,105.332c-10.119,7.6,61.827,13.607,60.934,18.634,24.95,7.5,53.032,34.125,61.472,65.578,6.946,4.253,15.019,84.888,20.631,90.072,10.747,3.789,17.869,86.636,22.588,93.318,8.811,38.76-12.066,73.652-38.35,73.652,0,0-85.986-.3-116.411.08H122.421c-8.433,0-28.869-2.193-35.738-6.04-14.541-8.143-50.444-23.7-50.444-41.551C33.276,391.9,52.692,307.47,58.18,306.429c.572-.108,1.123-4.052,1.652-4.17,16.293-3.643,12.159-63.585,17.493-64.718,1.579-3.9,2.5-31.789,2.741-34.83,2.6-33.09,12.942-58.517,39.084-73.812a68.743,68.743,0,0,1,12.719-5.421c7.478-11.9,105.643-25.686,95.6-18.146" fill="#a00f98"/>
    <path id="Path_20" data-name="Path 20" d="M228.508,131.665c-12.649,9.5,42.867,17.009,41.75,23.293,19.361,9.375,44.874,33.068,55.425,60.556,8.682,5.316,18.774,71.693,25.788,78.173,13.434,4.736,23.755,73.038,28.235,82.23,16.755,34.377-5.494,70.649-26.521,70.649,0,0-73.066-.369-111.1.1H131.61c-6.746,0-28.728-1.754-34.223-4.832C85.754,435.319,45.3,422.875,45.3,408.593c-3.7-8.968,20.568-81.812,27.426-83.113.717-.136,1.4-3.342,2.065-3.49,20.367-4.554,15.2-56.1,21.867-57.519,1.974-4.876,3.1-28.7,3.426-32.5,2.647-31.216,9.087-54.459,32.256-71.393a63.806,63.806,0,0,1,11.082-6.233c9.348-14.873,97.637-32.107,85.088-22.682" fill="#b01391"/>
    <path id="Path_21" data-name="Path 21" d="M229.543,158c-15.179,11.4,23.906,20.411,22.566,27.952,13.771,11.249,36.717,32.011,49.377,55.534,10.418,6.38,22.529,58.5,30.946,66.274,16.121,5.683,28.1,60.318,33.882,71.142,17.4,32.578,1.078,67.646-14.693,67.646,0,0-60.145-.442-105.782.12H140.8c-5.059,0-28.586-1.316-32.708-3.624-8.724-4.886-53.733-14.22-53.733-24.931-4.444-10.761,24.681-72.019,32.911-73.581.86-.163,1.685-2.631,2.478-2.809,24.44-5.464,18.239-48.619,26.241-50.32,2.368-5.851,3.692-25.61,4.11-30.166,2.694-29.347,5.232-50.4,25.429-68.974a58.007,58.007,0,0,1,9.445-7.045c11.216-17.847,89.63-38.528,74.571-27.218" fill="#c0178a"/>
    <path id="Path_22" data-name="Path 22" d="M230.578,184.331c-17.709,13.3,4.946,23.813,3.382,32.61,8.181,13.125,28.559,30.954,43.329,50.513,12.155,7.443,26.284,45.3,36.1,54.375,18.807,6.631,32.294,47.7,39.529,60.054,18.111,30.921,7.649,64.643-2.864,64.643,0,0-47.225-.516-100.468.14h-99.6c-3.373,0-28.445-.877-31.192-2.416-5.817-3.257-55.378-9.48-55.378-16.62-5.185-12.556,28.794-62.227,38.4-64.049,1-.19,1.966-1.921,2.891-2.128,28.513-6.375,21.279-41.137,30.614-43.121,2.763-6.827,4.266-22.523,4.8-27.835,2.741-27.482,1.376-46.345,18.6-66.555,2.089-2.676,5.186-4.871,7.808-7.856,16.228-18.478,81.623-44.95,64.055-31.755" fill="#cf1a83"/>
    <path id="Path_23" data-name="Path 23" d="M231.613,210.664c-20.238,15.2-15.777,27.057-15.8,37.269-.037,15.222,18.954,31.626,37.282,45.491,12.99,9.827,30.038,32.107,41.261,42.475,21.494,7.579,36.328,35.206,45.176,48.967,18.916,29.416,14.221,61.641,8.964,61.641,0,0-34.3-.591-95.153.159H159.177c-1.686,0-28.3-.438-29.677-1.208-2.909-1.628-57.022-4.74-57.022-8.31-5.926-14.349,32.907-52.434,43.881-54.517,1.146-.217,2.246-1.21,3.3-1.447,32.586-7.285,24.319-33.654,34.987-35.922,3.158-7.8,4.821-19.438,5.481-25.5,2.789-25.623-2.479-42.287,11.773-64.136,1.5-2.856,3.859-5.578,6.17-8.668,16.835-22.506,73.617-51.371,53.539-36.291" fill="#df1e7c"/>
    <path id="Path_24" data-name="Path 24" d="M173.981,372.192c15.943-39.4-3.4-54.669,11.111-84.889,8.445-28,72.889-69.333,47.556-50.306-84.689,63.6,4.415,77.634,42.666,112.973,69.333,24.444,71.616,96.516,71.616,96.516s-21.383-.664-89.838.18H81.537c-6.667-16.143,37.02-42.642,49.366-44.985,41-7.779,30.686-26.855,43.078-29.489" fill="#ef2275"/>
  </g>
</svg>
