<svg id="Group_3" data-name="Group 3" xmlns="http://www.w3.org/2000/svg" width="54.588" height="44.477" viewBox="0 0 54.588 44.477">
  <g id="Group_2" data-name="Group 2" transform="translate(0 0)">
    <path id="Path_1" data-name="Path 1" d="M-128.541,30.144q-3.851,0-7.7.022Q-132.392,30.148-128.541,30.144Z" transform="translate(140.751 -30.144)" fill="#2a7fff"/>
    <g id="Group_1" data-name="Group 1" transform="translate(0 2.077)">
      <path id="Path_2" data-name="Path 2" d="M-227.4,33.485l.173.1Zm.263.147.232.133Zm.241.139.249.147Zm.249.147q.461.275.9.563Q-226.191,34.193-226.651,33.918Zm.914.572q.432.283.844.579Q-225.306,34.774-225.737,34.49Zm.87.6q.2.144.4.291Q-224.667,35.233-224.867,35.089Zm.426.314q.181.136.359.276Q-224.26,35.539-224.441,35.4Zm.4.306q.178.14.352.283Q-223.865,35.849-224.042,35.709Zm.431.347q.176.145.349.292Q-223.435,36.2-223.612,36.057Zm4.441,4.557.115.142Zm.4.5.191.242Zm.4.5.2.264Zm.392.51.226.3Zm.362.48.254.341Zm.369.5.253.345Zm.334.455.3.408Zm-8.743,2.747c.128.159.258.321.389.485C-225.4,46.63-225.527,46.467-225.655,46.309Zm6.359.347-3.418,3.418q.208.263.41.516c.131.223.292.478.474.756-.182.278-.342.533-.474.756-1.066,1.327-2.252,2.926-3.351,4.281a25.919,25.919,0,0,1-3.415,3.591,17.821,17.821,0,0,1-4.191,2.693,14.159,14.159,0,0,1-2.946.9l-7.132,7.132a4,4,0,0,0,.749.666,6.5,6.5,0,0,0,2.523,1.055,8.329,8.329,0,0,0,1.454.127,16.349,16.349,0,0,0,1.987-.124,18.236,18.236,0,0,0,3.874-.868,34.437,34.437,0,0,0,5.07-2.2,24.744,24.744,0,0,0,4.42-3.015,31.942,31.942,0,0,0,3.673-3.758c1.149-1.368,2.244-2.845,3.149-4.106A30.309,30.309,0,0,0-213.5,61.4a24.751,24.751,0,0,0,4.42,3.015l.044.023Zm10.264,17.778.312.164Zm.312.164q.315.163.637.321Q-208.405,64.762-208.72,64.6Zm.637.321.323.156Zm.323.156.324.153Zm.324.153q.325.151.651.294Q-207.111,65.38-207.437,65.228Zm.651.294.324.141Zm.324.141.322.136ZM-243.339,70.7q-.061-.072-.114-.142Q-243.4,70.627-243.339,70.7Zm-.114-.142q-.053-.071-.1-.14Q-243.506,70.485-243.453,70.556Zm-.1-.14c-.029-.046-.056-.091-.081-.136Q-243.595,70.347-243.551,70.416Zm20.836-20.342c-.2-.258-.411-.526-.62-.8C-223.126,49.548-222.918,49.816-222.715,50.074Zm-2.4-3.092.243.308Zm.549.7q.353.454.705.91C-224.1,48.289-224.334,47.987-224.569,47.684Zm-11.883,15.929q-.19.036-.377.067C-236.7,63.659-236.579,63.637-236.452,63.613Zm30.325,2.192.3.125Zm.412.168.208.084Zm.278.111.246.1Z" transform="translate(243.909 -30.145)" fill="#af52ff" fill-rule="evenodd"/>
      <path id="Path_3" data-name="Path 3" d="M-239.207,22.986a8.33,8.33,0,0,0-1.454.127,6.5,6.5,0,0,0-2.523,1.055,3.164,3.164,0,0,0-1.113,1.223,2.728,2.728,0,0,0-.206,1.237,4.947,4.947,0,0,0,.247,1.717,4.592,4.592,0,0,0,1.14,1.635,4.883,4.883,0,0,0,1.965,1.209,23.089,23.089,0,0,0,3.2.577,16.011,16.011,0,0,1,4.094,1.1,17.816,17.816,0,0,1,4.191,2.693,25.909,25.909,0,0,1,3.415,3.591c.96,1.184,1.986,2.553,2.94,3.765l6.1-6.1c-.87-1.206-1.9-2.583-2.976-3.866a31.947,31.947,0,0,0-3.673-3.758,24.75,24.75,0,0,0-4.42-3.015,34.444,34.444,0,0,0-5.07-2.2,18.235,18.235,0,0,0-3.874-.868,16.355,16.355,0,0,0-1.987-.124Zm2.407,33.42c-.394.079-.778.143-1.148.2a23.088,23.088,0,0,0-3.2.577,4.884,4.884,0,0,0-1.965,1.209,4.592,4.592,0,0,0-1.14,1.635,4.947,4.947,0,0,0-.247,1.717,2.728,2.728,0,0,0,.206,1.237,2.452,2.452,0,0,0,.364.557Z" transform="translate(244.502 -22.986)" fill="#d8aaff" fill-rule="evenodd"/>
      <path id="Path_4" data-name="Path 4" d="M-158.936,22.986a.991.991,0,0,0-1.022.941v4.13h-.007a18.236,18.236,0,0,0-3.874.868,34.446,34.446,0,0,0-5.071,2.2,24.747,24.747,0,0,0-4.42,3.015,30.3,30.3,0,0,0-2.945,2.917l-.173-.24L-179.13,39.5l10.264,17.778a34.47,34.47,0,0,0,5.026,2.172,18.235,18.235,0,0,0,3.874.868h.007v4.13c.037.755.991,1.526,2.363.293l3.86-3.86,4.15-4.15a1.46,1.46,0,0,0,0-2.07l-4.13-4.13-3.881-3.881a1.714,1.714,0,0,0-1.209-.567,1.1,1.1,0,0,0-1.153,1.145v4.313a14.728,14.728,0,0,1-3.374-.979,17.82,17.82,0,0,1-4.191-2.693,25.924,25.924,0,0,1-3.415-3.591l-.072-.09.072-.09a25.924,25.924,0,0,1,3.415-3.591,17.82,17.82,0,0,1,4.191-2.693,14.728,14.728,0,0,1,3.374-.979v4.313a1.1,1.1,0,0,0,1.153,1.145,1.714,1.714,0,0,0,1.209-.567l3.881-3.881,4.13-4.13a1.46,1.46,0,0,0,0-2.07l-4.15-4.15-3.86-3.86a2.129,2.129,0,0,0-1.341-.648Zm-25.791,4.924.024.017Zm.422.31.028.021Zm.393.3.035.027Zm.392.314.074.061Zm4.512,4.615.141.175Zm.406.5.191.242Zm.4.5.213.276Zm.388.5.233.308Zm.367.485.254.341Zm.364.489.259.352Zm.339.463.3.409Z" transform="translate(203.742 -22.986)" fill="#951aff" fill-rule="evenodd"/>
    </g>
  </g>
</svg>
